<?xml version="1.0" encoding="UTF-8" standalone="no"?>
<!DOCTYPE svg PUBLIC "-//W3C//DTD SVG 1.1//EN" "http://www.w3.org/Graphics/SVG/1.1/DTD/svg11.dtd">
<svg width="100%" height="100%" viewBox="0 0 1000 1000" version="1.1" xmlns="http://www.w3.org/2000/svg" xmlns:xlink="http://www.w3.org/1999/xlink" xml:space="preserve" xmlns:serif="http://www.serif.com/" style="fill-rule:evenodd;clip-rule:evenodd;stroke-linejoin:round;stroke-miterlimit:2;">
    <path d="M900,220C900,153.77 846.23,100 780,100L220,100C153.77,100 100,153.77 100,220L100,780C100,846.23 153.77,900 220,900L780,900C846.23,900 900,846.23 900,780L900,220Z" style="fill:rgb(123,123,123);"/>
    <g transform="matrix(1.02319,0,0,1.02319,-154.818,-36.9758)">
        <g transform="matrix(52.9392,0,0,52.9392,337.246,826.418)">
            <path d="M0.501,-0.769L0.501,-0.538C0.501,-0.413 0.505,-0.304 0.514,-0.206L0.512,-0.206C0.481,-0.286 0.438,-0.38 0.397,-0.457L0.235,-0.769L0.075,-0.769L0.075,-0L0.209,-0L0.209,-0.236C0.209,-0.373 0.206,-0.481 0.2,-0.576L0.204,-0.576C0.236,-0.492 0.281,-0.397 0.322,-0.318L0.487,-0L0.635,-0L0.635,-0.769L0.501,-0.769Z" style="fill:rgb(64,64,64);fill-rule:nonzero;"/>
        </g>
        <g transform="matrix(52.9392,0,0,52.9392,374.886,826.418)">
            <path d="M0.511,-0.234C0.514,-0.25 0.515,-0.271 0.515,-0.293C0.515,-0.473 0.427,-0.569 0.292,-0.569C0.129,-0.569 0.037,-0.431 0.037,-0.271C0.037,-0.098 0.135,0.01 0.307,0.01C0.376,0.01 0.441,-0.002 0.487,-0.022L0.466,-0.124C0.428,-0.111 0.385,-0.101 0.33,-0.101C0.25,-0.101 0.182,-0.139 0.178,-0.234L0.511,-0.234ZM0.178,-0.337C0.182,-0.392 0.212,-0.466 0.283,-0.466C0.356,-0.466 0.379,-0.395 0.378,-0.337L0.178,-0.337Z" style="fill:rgb(64,64,64);fill-rule:nonzero;"/>
        </g>
        <g transform="matrix(52.9392,0,0,52.9392,404.055,826.418)">
            <path d="M0.22,-0.709C0.22,-0.755 0.188,-0.788 0.14,-0.788C0.094,-0.788 0.061,-0.755 0.061,-0.709C0.061,-0.664 0.093,-0.63 0.14,-0.63C0.186,-0.63 0.22,-0.661 0.22,-0.709ZM0.067,-0.557L0.067,-0L0.215,-0L0.215,-0.557L0.067,-0.557Z" style="fill:rgb(64,64,64);fill-rule:nonzero;"/>
        </g>
        <g transform="matrix(52.9392,0,0,52.9392,418.931,826.418)">
            <path d="M0.409,-0.49L0.407,-0.49C0.382,-0.534 0.337,-0.568 0.267,-0.568C0.144,-0.568 0.037,-0.459 0.037,-0.275C0.037,-0.123 0.12,-0.004 0.252,-0.004C0.313,-0.004 0.363,-0.031 0.391,-0.075L0.393,-0.075L0.393,-0.034C0.393,0.073 0.338,0.12 0.255,0.12C0.196,0.12 0.144,0.102 0.111,0.084L0.082,0.197C0.126,0.222 0.193,0.235 0.258,0.235C0.529,0.235 0.539,0.033 0.539,-0.076L0.539,-0.39C0.539,-0.468 0.541,-0.517 0.544,-0.557L0.415,-0.557L0.409,-0.49ZM0.391,-0.232C0.391,-0.138 0.331,-0.116 0.297,-0.116C0.227,-0.116 0.186,-0.182 0.186,-0.279C0.186,-0.384 0.231,-0.452 0.298,-0.452C0.348,-0.452 0.391,-0.411 0.391,-0.34L0.391,-0.232Z" style="fill:rgb(64,64,64);fill-rule:nonzero;"/>
        </g>
        <g transform="matrix(52.9392,0,0,52.9392,451.012,826.418)">
            <path d="M0.215,-0.49L0.215,-0.804L0.067,-0.804L0.067,-0L0.215,-0L0.215,-0.338C0.215,-0.421 0.272,-0.447 0.309,-0.447C0.373,-0.447 0.395,-0.392 0.395,-0.321L0.395,-0L0.543,-0L0.543,-0.333C0.543,-0.497 0.465,-0.569 0.366,-0.569C0.318,-0.569 0.257,-0.548 0.217,-0.49L0.215,-0.49Z" style="fill:rgb(64,64,64);fill-rule:nonzero;"/>
        </g>
        <g transform="matrix(52.9392,0,0,52.9392,483.199,826.418)">
            <path d="M0.215,-0.804L0.067,-0.804L0.067,-0.16C0.067,-0.103 0.065,-0.04 0.063,-0L0.189,-0L0.196,-0.077L0.199,-0.077C0.234,-0.014 0.287,0.011 0.349,0.011C0.464,0.011 0.577,-0.087 0.577,-0.289C0.577,-0.455 0.495,-0.569 0.372,-0.569C0.301,-0.569 0.249,-0.539 0.217,-0.49L0.215,-0.49L0.215,-0.804ZM0.215,-0.331C0.215,-0.403 0.264,-0.451 0.315,-0.451C0.391,-0.451 0.428,-0.377 0.428,-0.282C0.428,-0.174 0.387,-0.107 0.315,-0.107C0.256,-0.107 0.215,-0.159 0.215,-0.222L0.215,-0.331Z" style="fill:rgb(64,64,64);fill-rule:nonzero;"/>
        </g>
        <g transform="matrix(52.9392,0,0,52.9392,515.757,826.418)">
            <path d="M0.299,-0.569C0.148,-0.569 0.035,-0.463 0.035,-0.276C0.035,-0.095 0.143,0.011 0.293,0.011C0.417,0.011 0.553,-0.071 0.553,-0.283C0.553,-0.452 0.455,-0.569 0.299,-0.569ZM0.403,-0.28C0.403,-0.181 0.365,-0.098 0.295,-0.098C0.223,-0.098 0.185,-0.18 0.185,-0.279C0.185,-0.364 0.214,-0.46 0.296,-0.46C0.372,-0.46 0.403,-0.367 0.403,-0.28Z" style="fill:rgb(64,64,64);fill-rule:nonzero;"/>
        </g>
        <g transform="matrix(52.9392,0,0,52.9392,547.15,826.418)">
            <path d="M0.196,-0.46L0.19,-0.557L0.063,-0.557C0.065,-0.507 0.067,-0.452 0.067,-0.383L0.067,-0L0.215,-0L0.215,-0.288C0.215,-0.383 0.266,-0.428 0.333,-0.428C0.348,-0.428 0.36,-0.427 0.371,-0.425L0.371,-0.566C0.361,-0.568 0.352,-0.569 0.338,-0.569C0.286,-0.569 0.226,-0.532 0.2,-0.46L0.196,-0.46Z" style="fill:rgb(64,64,64);fill-rule:nonzero;"/>
        </g>
        <g transform="matrix(52.9392,0,0,52.9392,567.584,826.418)">
            <path d="M0.215,-0.49L0.215,-0.804L0.067,-0.804L0.067,-0L0.215,-0L0.215,-0.338C0.215,-0.421 0.272,-0.447 0.309,-0.447C0.373,-0.447 0.395,-0.392 0.395,-0.321L0.395,-0L0.543,-0L0.543,-0.333C0.543,-0.497 0.465,-0.569 0.366,-0.569C0.318,-0.569 0.257,-0.548 0.217,-0.49L0.215,-0.49Z" style="fill:rgb(64,64,64);fill-rule:nonzero;"/>
        </g>
        <g transform="matrix(52.9392,0,0,52.9392,599.771,826.418)">
            <path d="M0.299,-0.569C0.148,-0.569 0.035,-0.463 0.035,-0.276C0.035,-0.095 0.143,0.011 0.293,0.011C0.417,0.011 0.553,-0.071 0.553,-0.283C0.553,-0.452 0.455,-0.569 0.299,-0.569ZM0.403,-0.28C0.403,-0.181 0.365,-0.098 0.295,-0.098C0.223,-0.098 0.185,-0.18 0.185,-0.279C0.185,-0.364 0.214,-0.46 0.296,-0.46C0.372,-0.46 0.403,-0.367 0.403,-0.28Z" style="fill:rgb(64,64,64);fill-rule:nonzero;"/>
        </g>
        <g transform="matrix(52.9392,0,0,52.9392,631.164,826.418)">
            <path d="M0.299,-0.569C0.148,-0.569 0.035,-0.463 0.035,-0.276C0.035,-0.095 0.143,0.011 0.293,0.011C0.417,0.011 0.553,-0.071 0.553,-0.283C0.553,-0.452 0.455,-0.569 0.299,-0.569ZM0.403,-0.28C0.403,-0.181 0.365,-0.098 0.295,-0.098C0.223,-0.098 0.185,-0.18 0.185,-0.279C0.185,-0.364 0.214,-0.46 0.296,-0.46C0.372,-0.46 0.403,-0.367 0.403,-0.28Z" style="fill:rgb(64,64,64);fill-rule:nonzero;"/>
        </g>
        <g transform="matrix(52.9392,0,0,52.9392,662.557,826.418)">
            <path d="M0.398,-0.804L0.398,-0.503L0.396,-0.503C0.374,-0.541 0.327,-0.568 0.262,-0.568C0.142,-0.568 0.037,-0.464 0.037,-0.274C0.037,-0.105 0.127,0.011 0.253,0.011C0.321,0.011 0.381,-0.024 0.41,-0.079L0.413,-0.079L0.42,-0L0.55,-0C0.548,-0.041 0.546,-0.103 0.546,-0.159L0.546,-0.804L0.398,-0.804ZM0.398,-0.228C0.398,-0.14 0.342,-0.108 0.298,-0.108C0.228,-0.108 0.186,-0.175 0.186,-0.276C0.186,-0.373 0.224,-0.451 0.3,-0.451C0.349,-0.451 0.398,-0.411 0.398,-0.33L0.398,-0.228Z" style="fill:rgb(64,64,64);fill-rule:nonzero;"/>
        </g>
        <g transform="matrix(52.9392,0,0,52.9392,706.444,826.418)">
            <path d="M0.223,-0.124L0.223,-0.338L0.474,-0.338L0.474,-0.459L0.223,-0.459L0.223,-0.645L0.489,-0.645L0.489,-0.769L0.075,-0.769L0.075,-0L0.505,-0L0.505,-0.124L0.223,-0.124Z" style="fill:rgb(64,64,64);fill-rule:nonzero;"/>
        </g>
        <g transform="matrix(52.9392,0,0,52.9392,735.243,826.418)">
            <path d="M0.313,-0.457C0.299,-0.428 0.286,-0.398 0.272,-0.368L0.27,-0.368C0.256,-0.396 0.243,-0.425 0.227,-0.456L0.174,-0.557L0.01,-0.557L0.175,-0.282L0.006,-0L0.164,-0L0.216,-0.108C0.23,-0.137 0.244,-0.166 0.257,-0.196L0.259,-0.196C0.273,-0.166 0.286,-0.137 0.301,-0.108L0.356,-0L0.522,-0L0.354,-0.288L0.52,-0.557L0.363,-0.557L0.313,-0.457Z" style="fill:rgb(64,64,64);fill-rule:nonzero;"/>
        </g>
        <g transform="matrix(52.9392,0,0,52.9392,763.247,826.418)">
            <path d="M0.445,-0.547C0.421,-0.557 0.377,-0.568 0.329,-0.568C0.145,-0.568 0.037,-0.44 0.037,-0.273C0.037,-0.096 0.143,0.01 0.306,0.01C0.365,0.01 0.416,-0.002 0.441,-0.014L0.425,-0.125C0.401,-0.114 0.372,-0.107 0.335,-0.107C0.25,-0.107 0.187,-0.17 0.187,-0.279C0.187,-0.377 0.241,-0.452 0.334,-0.452C0.375,-0.452 0.402,-0.443 0.421,-0.434L0.445,-0.547Z" style="fill:rgb(64,64,64);fill-rule:nonzero;"/>
        </g>
        <g transform="matrix(52.9392,0,0,52.9392,788.076,826.418)">
            <path d="M0.215,-0.49L0.215,-0.804L0.067,-0.804L0.067,-0L0.215,-0L0.215,-0.338C0.215,-0.421 0.272,-0.447 0.309,-0.447C0.373,-0.447 0.395,-0.392 0.395,-0.321L0.395,-0L0.543,-0L0.543,-0.333C0.543,-0.497 0.465,-0.569 0.366,-0.569C0.318,-0.569 0.257,-0.548 0.217,-0.49L0.215,-0.49Z" style="fill:rgb(64,64,64);fill-rule:nonzero;"/>
        </g>
        <g transform="matrix(52.9392,0,0,52.9392,820.263,826.418)">
            <path d="M0.098,-0.425C0.134,-0.447 0.184,-0.463 0.235,-0.463C0.316,-0.463 0.335,-0.421 0.335,-0.366C0.158,-0.366 0.031,-0.299 0.031,-0.156C0.031,-0.066 0.095,0.011 0.198,0.011C0.26,0.011 0.314,-0.014 0.346,-0.058L0.349,-0.058L0.358,-0L0.491,-0C0.485,-0.034 0.483,-0.083 0.483,-0.132L0.483,-0.336C0.483,-0.458 0.436,-0.568 0.263,-0.568C0.176,-0.568 0.107,-0.543 0.07,-0.521L0.098,-0.425ZM0.339,-0.191C0.339,-0.12 0.281,-0.095 0.246,-0.095C0.209,-0.095 0.176,-0.118 0.176,-0.171C0.176,-0.252 0.259,-0.271 0.339,-0.271L0.339,-0.191Z" style="fill:rgb(64,64,64);fill-rule:nonzero;"/>
        </g>
        <g transform="matrix(52.9392,0,0,52.9392,849.274,826.418)">
            <path d="M0.198,-0.482L0.191,-0.557L0.063,-0.557C0.065,-0.508 0.067,-0.455 0.067,-0.39L0.067,-0L0.215,-0L0.215,-0.332C0.215,-0.416 0.27,-0.447 0.31,-0.447C0.373,-0.447 0.395,-0.393 0.395,-0.325L0.395,-0L0.543,-0L0.543,-0.341C0.543,-0.497 0.464,-0.568 0.362,-0.568C0.281,-0.569 0.226,-0.523 0.201,-0.482L0.198,-0.482Z" style="fill:rgb(64,64,64);fill-rule:nonzero;"/>
        </g>
        <g transform="matrix(52.9392,0,0,52.9392,881.461,826.418)">
            <path d="M0.409,-0.49L0.407,-0.49C0.382,-0.534 0.337,-0.568 0.267,-0.568C0.144,-0.568 0.037,-0.459 0.037,-0.275C0.037,-0.123 0.12,-0.004 0.252,-0.004C0.313,-0.004 0.363,-0.031 0.391,-0.075L0.393,-0.075L0.393,-0.034C0.393,0.073 0.338,0.12 0.255,0.12C0.196,0.12 0.144,0.102 0.111,0.084L0.082,0.197C0.126,0.222 0.193,0.235 0.258,0.235C0.529,0.235 0.539,0.033 0.539,-0.076L0.539,-0.39C0.539,-0.468 0.541,-0.517 0.544,-0.557L0.415,-0.557L0.409,-0.49ZM0.391,-0.232C0.391,-0.138 0.331,-0.116 0.297,-0.116C0.227,-0.116 0.186,-0.182 0.186,-0.279C0.186,-0.384 0.231,-0.452 0.298,-0.452C0.348,-0.452 0.391,-0.411 0.391,-0.34L0.391,-0.232Z" style="fill:rgb(64,64,64);fill-rule:nonzero;"/>
        </g>
        <g transform="matrix(52.9392,0,0,52.9392,913.542,826.418)">
            <path d="M0.511,-0.234C0.514,-0.25 0.515,-0.271 0.515,-0.293C0.515,-0.473 0.427,-0.569 0.292,-0.569C0.129,-0.569 0.037,-0.431 0.037,-0.271C0.037,-0.098 0.135,0.01 0.307,0.01C0.376,0.01 0.441,-0.002 0.487,-0.022L0.466,-0.124C0.428,-0.111 0.385,-0.101 0.33,-0.101C0.25,-0.101 0.182,-0.139 0.178,-0.234L0.511,-0.234ZM0.178,-0.337C0.182,-0.392 0.212,-0.466 0.283,-0.466C0.356,-0.466 0.379,-0.395 0.378,-0.337L0.178,-0.337Z" style="fill:rgb(64,64,64);fill-rule:nonzero;"/>
        </g>
    </g>
    <g transform="matrix(1.02319,0,0,1.02319,-109.859,-592.831)">
        <g transform="matrix(651.559,0,0,651.559,249.043,1307.67)">
            <path d="M0.501,-0.769L0.501,-0.538C0.501,-0.413 0.505,-0.304 0.514,-0.206L0.512,-0.206C0.481,-0.286 0.438,-0.38 0.397,-0.457L0.235,-0.769L0.075,-0.769L0.075,-0L0.209,-0L0.209,-0.236C0.209,-0.373 0.206,-0.481 0.2,-0.576L0.204,-0.576C0.236,-0.492 0.281,-0.397 0.322,-0.318L0.487,-0L0.635,-0L0.635,-0.769L0.501,-0.769Z" style="fill:rgb(255,0,0);fill-rule:nonzero;"/>
        </g>
    </g>
    <g transform="matrix(0.46134,0,0,5.33578,484.854,-3960.71)">
        <path d="M394.015,822.091L394.015,810.052L643.94,810.052L643.94,803.256L394.015,803.256L394.015,792.791L653.694,792.791L653.694,785.826L297.855,785.826L297.855,829.056L664.098,829.056L664.098,822.091L394.015,822.091Z" style="fill:rgb(255,0,0);fill-rule:nonzero;"/>
    </g>
    <g transform="matrix(0.508209,0,0,5.33578,487.722,-3680.18)">
        <path d="M632.019,785.826L526.046,785.826L483.787,794.259C471.434,796.732 462.983,798.7 451.28,801.398L449.98,801.398C438.277,798.981 428.525,796.788 415.522,794.315L370.662,785.826L263.389,785.826L388.216,807.076L258.838,829.056L364.161,829.056L405.12,820.736C420.073,817.757 431.776,815.396 442.178,812.81L444.128,812.81C456.481,815.396 468.184,817.7 485.087,820.68L529.947,829.056L637.87,829.056L503.941,807.02L632.019,785.826Z" style="fill:rgb(255,0,0);fill-rule:nonzero;"/>
    </g>
</svg>
